<svg width="21" height="20" viewBox="0 0 21 20" fill="none" xmlns="http://www.w3.org/2000/svg">
<path fill-rule="evenodd" clip-rule="evenodd" d="M12.3107 14H14.6773C14.9217 14 15.1303 13.8233 15.1705 13.5822L15.5038 11.5822C15.528 11.4372 15.4871 11.289 15.3921 11.1768C15.2971 11.0647 15.1576 11 15.0106 11H12.1387V9C12.1387 8.44772 12.5865 8 13.1387 8H14.6387C14.9149 8 15.1387 7.77614 15.1387 7.5V5.5C15.1387 5.22386 14.9149 5 14.6387 5H12.8107C10.6016 5 8.81074 6.79086 8.81074 9V11H6.51074C6.2346 11 6.01074 11.2239 6.01074 11.5V13.5C6.01074 13.7761 6.2346 14 6.51074 14H8.81074V19H5.51074C3.3016 19 1.51074 17.2091 1.51074 15V5C1.51074 2.79086 3.3016 1 5.51074 1H15.5107C17.7199 1 19.5107 2.79086 19.5107 5V15C19.5107 17.2091 17.7199 19 15.5107 19H12.3107V14Z" stroke="white" stroke-width="1.5" stroke-linecap="round" stroke-linejoin="round"/>
</svg>
