<svg width="21" height="20" viewBox="0 0 21 20" fill="none" xmlns="http://www.w3.org/2000/svg">
<path d="M6.51074 1H14.5107C17.2722 1 19.5107 3.23858 19.5107 6V14C19.5107 16.7614 17.2722 19 14.5107 19H6.51074C3.74932 19 1.51074 16.7614 1.51074 14V6C1.51074 3.23858 3.74932 1 6.51074 1ZM6.51074 1V4M9.51074 4V1M19.5107 9H13.9685M7.05268 9H1.51074M15.5101 4.75C15.3719 4.75018 15.26 4.86231 15.2601 5.00051C15.2602 5.1387 15.3722 5.25068 15.5104 5.25068C15.6486 5.25068 15.7607 5.1387 15.7607 5.00051C15.7608 4.86231 15.6483 4.75018 15.5101 4.75ZM14.1107 10C14.1107 11.9882 12.499 13.6 10.5107 13.6C8.52252 13.6 6.91074 11.9882 6.91074 10C6.91074 8.01177 8.52252 6.4 10.5107 6.4C12.499 6.4 14.1107 8.01177 14.1107 10Z" stroke="white" stroke-width="1.5" stroke-linecap="round" stroke-linejoin="round"/>
</svg>
