<svg width="20" height="20" viewBox="0 0 20 20" fill="none" xmlns="http://www.w3.org/2000/svg">
<path d="M7.642 12.1115C9.607 14.0775 12.096 15.3295 13.577 13.8555L13.936 13.4965C14.415 13.0185 14.348 12.2265 13.792 11.8405C13.442 11.5965 13.066 11.3345 12.65 11.0425C12.22 10.7405 11.63 10.7875 11.257 11.1575L10.851 11.5605C10.348 11.2415 9.85 10.8325 9.388 10.3705L9.386 10.3685C8.924 9.90654 8.515 9.40854 8.196 8.90554L8.599 8.49954C8.97 8.12654 9.016 7.53654 8.714 7.10654C8.421 6.69054 8.159 6.31454 7.916 5.96454C7.53 5.40954 6.738 5.34254 6.26 5.82054L5.901 6.17954C4.427 7.66054 5.679 10.1485 7.644 12.1145M15.96 3.76254C14.314 2.11554 12.125 1.20754 9.793 1.20654C4.986 1.20654 1.075 5.11554 1.074 9.92054C1.072 11.4495 1.473 12.9525 2.237 14.2775L1 18.7935L5.622 17.5815C6.901 18.2775 8.333 18.6425 9.789 18.6425H9.793C14.598 18.6425 18.509 14.7325 18.511 9.92754C18.512 7.59954 17.606 5.41054 15.96 3.76254Z" stroke="white" stroke-width="1.5" stroke-linecap="round" stroke-linejoin="round"/>
</svg>
